<?xml version="1.0" standalone="no"?><!DOCTYPE svg PUBLIC "-//W3C//DTD SVG 1.1//EN" "http://www.w3.org/Graphics/SVG/1.1/DTD/svg11.dtd"><svg t="1736037704585" class="icon" viewBox="0 0 1053 1024" version="1.1" xmlns="http://www.w3.org/2000/svg" p-id="4288" xmlns:xlink="http://www.w3.org/1999/xlink" width="205.6640625" height="200"><path d="M526.55119 0.092c-125.956 0-228.052 102.09-228.052 228.027-119.774-38.914-248.353 26.709-287.267 146.483-38.92 119.804 26.551 248.353 146.326 287.282-74.025 101.884-51.42 244.48 50.47 318.509 101.884 74.024 244.48 51.42 318.508-50.47 74.024 101.884 216.772 124.494 318.661 50.47 101.885-74.024 124.342-216.615 50.318-318.51 119.774-38.918 185.397-167.497 146.483-287.271-38.93-119.833-167.626-185.457-287.415-146.542C754.58319 102.134 652.51119 0.042 526.52119 0.042z" fill="#DE0010" p-id="4289"></path><path d="M475.60419 180.887v90.162c-152.296 24.406-268.65 156.385-268.65 315.58 0 105.104 50.667 198.366 128.943 256.651l60.933-82.012c-53.294-39.642-87.7-103.1-87.7-174.639 0-102.598 70.962-188.616 166.479-211.57v399.748H577.62119V375.06c95.516 23.003 166.637 109.025 166.637 211.57 0 71.543-34.52 134.996-87.859 174.638l60.81 82.08c78.32-58.28 129.096-151.542 129.096-256.65 0-159.146-116.403-291.115-268.65-315.58V180.97H475.61519z" fill="#FFFFFF" p-id="4290"></path></svg>